<svg xmlns="http://www.w3.org/2000/svg" viewBox="0 0 24 24" width="24px" height="24px">
  <path d="M 20 2 C 19.046875 2 18.84375 2.785156 18.84375 3.125 C 18.84375 3.464844 19.003906 4.28125 20 4.28125 C 20.996094 4.28125 21.125 3.441406 21.125 3.125 C 21.125 2.808594 20.953125 2 20 2 Z M 10 6 C 7.789063 6 6 7.789063 6 10 C 6 12.210938 7.789063 14 10 14 C 12.210938 14 14 12.210938 14 10 C 14 7.789063 12.210938 6 10 6 Z M 18 6 L 18 7 L 19 7 L 19 13 L 21 13 L 21 6 Z M 10 16 C 3.921875 16 2 20 2 20 L 2 22 L 18 22 L 18 20 C 18 20 16.078125 16 10 16 Z" fill="#F5F5F5" />
</svg>